<?xml version="1.0" encoding="UTF-8" standalone="no"?>
<!-- Generator: Adobe Illustrator 12.0.1, SVG Export Plug-In . SVG Version: 6.00 Build 51448)  -->
<svg
   xmlns:dc="http://purl.org/dc/elements/1.1/"
   xmlns:cc="http://web.resource.org/cc/"
   xmlns:rdf="http://www.w3.org/1999/02/22-rdf-syntax-ns#"
   xmlns:svg="http://www.w3.org/2000/svg"
   xmlns="http://www.w3.org/2000/svg"
   xmlns:sodipodi="http://sodipodi.sourceforge.net/DTD/sodipodi-0.dtd"
   xmlns:inkscape="http://www.inkscape.org/namespaces/inkscape"
   version="1.1"
   id="Layer_1"
   width="143.328"
   height="76.934"
   viewBox="0 0 143.328 76.934"
   style="overflow:visible;enable-background:new 0 0 143.328 76.934;"
   xml:space="preserve"
   sodipodi:version="0.32"
   inkscape:version="0.45.1"
   sodipodi:docname="Propenal.svg"
   inkscape:output_extension="org.inkscape.output.svg.inkscape"
   sodipodi:docbase="C:\"><metadata
   id="metadata38"><rdf:RDF><cc:Work
       rdf:about=""><dc:format>image/svg+xml</dc:format><dc:type
         rdf:resource="http://purl.org/dc/dcmitype/StillImage" /></cc:Work></rdf:RDF></metadata><defs
   id="defs36" /><sodipodi:namedview
   inkscape:window-height="579"
   inkscape:window-width="801"
   inkscape:pageshadow="2"
   inkscape:pageopacity="0.0"
   guidetolerance="10.0"
   gridtolerance="10.0"
   objecttolerance="10.0"
   borderopacity="1.0"
   bordercolor="#666666"
   pagecolor="#ffffff"
   id="base"
   inkscape:zoom="4.9133024"
   inkscape:cx="71.664001"
   inkscape:cy="38.466999"
   inkscape:window-x="66"
   inkscape:window-y="66"
   inkscape:current-layer="Layer_1" />
<path
   style="fill:#231f20"
   d="M 100.7093,46.27315 L 100.7093,48.12565 L 68.0768,66.98315 L 68.0768,65.13065 L 100.7093,46.27315 z "
   id="polygon3" />
<g
   id="g5"
   transform="matrix(0.95,0,0,0.95,3.5832,1.92335)">
	<path
   style="fill:#231f20"
   d="M 0,54.534 L 0,37.347 L 2.281,37.347 L 2.281,44.41 L 11.172,44.41 L 11.172,37.347 L 13.453,37.347 L 13.453,54.535 L 11.172,54.535 L 11.172,46.44 L 2.281,46.44 L 2.281,54.534 L 0,54.534 z "
   id="path7" />
</g>
<g
   id="g9"
   transform="matrix(0.95,0,0,0.95,3.5832,1.92335)">
	<path
   style="fill:#231f20"
   d="M 23.774,57.519 L 23.774,59.035 L 15.243,59.035 C 15.231,58.654 15.293,58.288 15.429,57.936 C 15.647,57.356 15.996,56.785 16.477,56.223 C 16.957,55.661 17.647,55.012 18.547,54.276 C 19.943,53.123 20.889,52.212 21.387,51.542 C 21.885,50.872 22.134,50.237 22.134,49.639 C 22.134,49.013 21.909,48.486 21.459,48.055 C 21.009,47.625 20.422,47.41 19.699,47.41 C 18.933,47.41 18.322,47.639 17.863,48.098 C 17.404,48.557 17.172,49.192 17.166,50.003 L 15.541,49.831 C 15.652,48.615 16.072,47.689 16.801,47.053 C 17.529,46.415 18.507,46.097 19.735,46.097 C 20.974,46.097 21.955,46.44 22.677,47.126 C 23.399,47.812 23.76,48.662 23.76,49.676 C 23.76,50.192 23.654,50.699 23.443,51.197 C 23.232,51.695 22.88,52.22 22.39,52.771 C 21.899,53.322 21.086,54.078 19.95,55.039 C 18.999,55.837 18.388,56.377 18.117,56.662 C 17.846,56.945 17.621,57.231 17.444,57.518 L 23.774,57.518 L 23.774,57.519 z "
   id="path11" />
</g>
<g
   id="g13"
   transform="matrix(0.95,0,0,0.95,3.5832,1.92335)">
	<path
   style="fill:#231f20"
   d="M 38.039,48.507 L 40.32,49.081 C 39.844,50.951 38.987,52.377 37.751,53.358 C 36.514,54.339 35.001,54.831 33.214,54.831 C 31.364,54.831 29.86,54.454 28.701,53.699 C 27.542,52.945 26.66,51.851 26.055,50.421 C 25.45,48.99 25.148,47.453 25.148,45.812 C 25.148,44.022 25.489,42.459 26.172,41.126 C 26.855,39.793 27.826,38.779 29.087,38.088 C 30.347,37.397 31.733,37.05 33.247,37.05 C 34.964,37.05 36.407,37.488 37.577,38.364 C 38.748,39.241 39.563,40.472 40.023,42.061 L 37.789,42.588 C 37.391,41.338 36.814,40.428 36.058,39.858 C 35.301,39.288 34.349,39.003 33.203,39.003 C 31.885,39.003 30.783,39.319 29.897,39.952 C 29.012,40.585 28.39,41.434 28.031,42.501 C 27.672,43.568 27.493,44.667 27.493,45.8 C 27.493,47.261 27.705,48.536 28.13,49.626 C 28.555,50.716 29.215,51.53 30.112,52.069 C 31.009,52.608 31.979,52.878 33.024,52.878 C 34.295,52.878 35.37,52.511 36.251,51.776 C 37.132,51.041 37.727,49.952 38.039,48.507 z "
   id="path15" />
</g>
<path
   style="fill:#231f20"
   d="M 44.3743,53.30315 L 45.1818,51.87815 L 68.0768,65.13065 L 68.0768,66.98315 L 44.3743,53.30315 z "
   id="polygon17" />
<path
   style="fill:#231f20"
   d="M 47.1768,48.41065 L 47.9843,46.98565 L 68.4568,58.81315 L 67.6493,60.23815 L 47.1768,48.41065 z "
   id="polygon19" />
<g
   id="g21"
   transform="matrix(0.95,0,0,0.95,3.5832,1.92335)">
	<path
   style="fill:#231f20"
   d="M 129.875,76.934 L 129.875,59.746 L 132.156,59.746 L 132.156,66.809 L 141.047,66.809 L 141.047,59.746 L 143.328,59.746 L 143.328,76.934 L 141.047,76.934 L 141.047,68.84 L 132.156,68.84 L 132.156,76.934 L 129.875,76.934 z "
   id="path23" />
</g>
<path
   style="fill:#231f20"
   d="M 124.0318,59.71565 L 123.22335,61.14065 L 100.7093,48.12565 L 100.7093,46.27315 L 124.0318,59.71565 z "
   id="polygon25" />
<g
   id="g27"
   transform="matrix(0.95,0,0,0.95,3.5832,1.92335)">
	<path
   style="fill:#231f20"
   d="M 93.994,9.119 C 93.994,6.266 94.76,4.034 96.293,2.421 C 97.824,0.807 99.802,0 102.224,0 C 103.812,0 105.242,0.379 106.515,1.137 C 107.789,1.896 108.761,2.952 109.429,4.308 C 110.097,5.664 110.431,7.202 110.431,8.92 C 110.431,10.663 110.079,12.222 109.376,13.597 C 108.673,14.972 107.676,16.014 106.386,16.721 C 105.097,17.428 103.705,17.782 102.212,17.782 C 100.595,17.782 99.148,17.391 97.874,16.61 C 96.6,15.829 95.636,14.761 94.978,13.41 C 94.32,12.059 93.994,10.628 93.994,9.119 z M 96.337,9.148 C 96.337,11.218 96.894,12.849 98.009,14.041 C 99.122,15.232 100.521,15.828 102.2,15.828 C 103.913,15.828 105.321,15.226 106.429,14.023 C 107.534,12.82 108.087,11.113 108.087,8.902 C 108.087,7.504 107.851,6.283 107.378,5.24 C 106.905,4.197 106.213,3.388 105.302,2.814 C 104.392,2.24 103.37,1.953 102.236,1.953 C 100.627,1.953 99.24,2.506 98.08,3.611 C 96.917,4.717 96.337,6.563 96.337,9.148 z "
   id="path29" />
</g>
<path
   style="fill:#231f20"
   d="M 97.098346,20.95565 L 98.7143,20.95565 L 98.7143,48.838151 L 97.098346,48.838151 L 97.098346,20.95565 z "
   id="rect31" />
<path
   style="fill:#231f20"
   d="M 102.70335,20.95565 L 104.31835,20.95565 L 104.31835,48.838151 L 102.70335,48.838151 L 102.70335,20.95565 z "
   id="rect33" />
</svg>